<?xml version="1.0" encoding="UTF-8"?>
<svg id="Layer_1" xmlns="http://www.w3.org/2000/svg" version="1.1" viewBox="0 0 743.84 707.24">
  <!-- Generator: Adobe Illustrator 29.8.1, SVG Export Plug-In . SVG Version: 2.1.1 Build 2)  -->
  <defs>
    <style>
      .st0 {
        fill: #231f20;
      }
    </style>
  </defs>
  <path class="st0" d="M591.48,409.41c-17.28,0-33.87,3.02-49.28,8.54l-14.18-36.3.66-.75-1.45-1.28-12.23-31.31c-.04-.18-.08-.36-.15-.54l-17.16-44.29,55.6-15.48c.57.05,1.17-.01,1.75-.21l.36-.13c15.23-5.06,31.74,3.22,36.79,18.45,5.06,15.23-3.22,31.74-18.45,36.79-.09.03-.11.04-8.1,2.91-4.89,1.76-10.3,3.71-10.72,3.85-2.18.75-3.37,3.11-2.67,5.31.58,1.81,2.25,2.96,4.05,2.96.43,0,.86-.06,1.29-.2.13-.04.15-.05,10.92-3.92,4.04-1.45,7.73-2.78,7.9-2.84,19.68-6.54,30.38-27.86,23.84-47.54-5.75-17.32-22.95-27.67-40.41-25.46-.71-.19-1.48-.22-2.24,0l-66.71,18.58c-1.16.32-2.12,1.12-2.66,2.19s-.6,2.32-.16,3.44l11.13,28.73-227.83,36.74-31.68-85.65,65.26-10.45c2.32-.37,3.9-2.55,3.53-4.87-.37-2.32-2.55-3.9-4.87-3.53l-109.68,17.57c-2.32.37-3.9,2.55-3.53,4.87.33,2.09,2.14,3.58,4.19,3.58.22,0,.45-.02.68-.05l35.91-5.75c.03.13.05.25.1.38l32.69,88.39-37.64,58.4c-22.09-13.4-48-21.12-75.67-21.12-80.71,0-146.38,65.67-146.38,146.38s65.67,146.38,146.38,146.38c72.64,0,133.08-53.19,144.45-122.67l50.48,6.79c.19.03.38.04.57.04,1.22,0,2.37-.54,3.18-1.46h.01s172.36-196.03,172.36-196.03l12.58,32.21c-52.37,22.32-89.18,74.31-89.18,134.74,0,80.71,65.67,146.38,146.38,146.38s146.38-65.67,146.38-146.38-65.67-146.38-146.38-146.38ZM150.66,693.67c-76.03,0-137.88-61.85-137.88-137.88s61.85-137.88,137.88-137.88c25.98,0,50.3,7.22,71.06,19.76l-74.63,115.81c-.79,1.22-.9,2.76-.29,4.08.61,1.32,1.85,2.24,3.29,2.43l136.58,18.37c-10.81,65.32-67.68,115.3-136.02,115.3ZM287.81,569.94l-129.95-17.47,71-110.17c36.02,24.9,59.68,66.48,59.68,113.49,0,4.78-.25,9.5-.72,14.15ZM296.24,571.08c.52-5.03.8-10.12.8-15.29,0-50-25.21-94.22-63.57-120.64l34.19-53.05,72.06,194.82-43.47-5.84ZM347.67,573.92l-73.29-198.14,227.86-36.74,15.97,40.9-170.55,193.99ZM591.48,693.67c-76.03,0-137.88-61.85-137.88-137.88,0-56.83,34.57-105.74,83.78-126.81l50.14,128.36c.86,2.19,3.32,3.27,5.51,2.41,2.19-.85,3.27-3.32,2.41-5.51l-50.14-128.36c14.44-5.15,29.99-7.96,46.18-7.96,76.03,0,137.88,61.85,137.88,137.88s-61.85,137.88-137.88,137.88Z"/>
  <g>
    <path class="st0" d="M113.48,5.2v66.93h-8.45V5.2h8.45ZM125.88,72.14h-16.17v-7.46h15.63c5.45,0,9.97-1.05,13.57-3.14,3.59-2.1,6.27-5.1,8.04-9.01,1.77-3.91,2.65-8.57,2.65-13.99s-.88-9.97-2.63-13.84-4.36-6.83-7.82-8.92c-3.46-2.08-7.79-3.12-13-3.12h-16.8v-7.46h17.38c6.53,0,12.11,1.33,16.73,4,4.63,2.67,8.18,6.49,10.65,11.48s3.71,10.94,3.71,17.86-1.24,12.98-3.73,17.99c-2.49,5.02-6.11,8.87-10.87,11.57s-10.54,4.04-17.34,4.04Z"/>
    <path class="st0" d="M186.14,72.81c-3.35,0-6.32-.7-8.89-2.09-2.58-1.39-4.59-3.49-6.04-6.29-1.45-2.8-2.18-6.31-2.18-10.53v-31.36h8v30.68c0,3.92,1.01,6.97,3.03,9.14,2.02,2.17,4.78,3.26,8.29,3.26,2.37,0,4.5-.52,6.4-1.55,1.9-1.03,3.41-2.55,4.51-4.56,1.11-2.01,1.66-4.48,1.66-7.41v-29.56h8.04v49.59h-7.73v-12.04h1.3c-1.56,4.61-3.76,7.88-6.6,9.82-2.85,1.93-6.11,2.9-9.79,2.9Z"/>
    <path class="st0" d="M244.93,73.17c-2.91,0-5.32-.49-7.25-1.46s-3.48-2.13-4.65-3.48-2.1-2.59-2.79-3.73h-.72v7.64h-7.73V5.2h8v25.16h.49c.66-1.11,1.56-2.32,2.7-3.64,1.14-1.32,2.66-2.46,4.56-3.44,1.9-.97,4.35-1.46,7.34-1.46,4.19,0,7.87,1.05,11.03,3.14,3.16,2.1,5.64,5.06,7.43,8.89,1.8,3.83,2.7,8.36,2.7,13.57s-.89,9.79-2.67,13.63c-1.78,3.85-4.25,6.83-7.41,8.94-3.16,2.11-6.84,3.17-11.03,3.17ZM243.72,66.03c3.05,0,5.64-.81,7.75-2.43s3.71-3.83,4.81-6.65c1.09-2.81,1.64-6,1.64-9.57s-.54-6.73-1.62-9.5c-1.08-2.77-2.67-4.95-4.78-6.54-2.11-1.59-4.71-2.38-7.79-2.38s-5.63.77-7.73,2.31c-2.1,1.54-3.69,3.69-4.78,6.45-1.09,2.76-1.64,5.97-1.64,9.66s.55,6.93,1.64,9.73c1.09,2.8,2.7,4.99,4.83,6.56,2.13,1.57,4.69,2.36,7.68,2.36Z"/>
    <path class="st0" d="M284.44,5.2v66.93h-8V5.2h8Z"/>
    <path class="st0" d="M301.27,14.1c-1.5,0-2.79-.52-3.89-1.57-1.09-1.05-1.64-2.31-1.64-3.77s.55-2.72,1.64-3.75c1.09-1.03,2.39-1.55,3.89-1.55s2.84.52,3.93,1.55c1.09,1.03,1.64,2.28,1.64,3.75s-.55,2.73-1.64,3.77c-1.09,1.05-2.4,1.57-3.93,1.57ZM297.27,72.14V22.54h8v49.59h-8Z"/>
    <path class="st0" d="M326.1,42.58v29.56h-8V22.54h7.68l.04,11.99h-1.35c1.53-4.55,3.7-7.81,6.51-9.77,2.81-1.96,6.12-2.94,9.93-2.94,3.35,0,6.31.7,8.87,2.09s4.57,3.49,6.02,6.29c1.45,2.8,2.18,6.33,2.18,10.58v31.36h-8v-30.73c0-3.89-1-6.92-3.01-9.1-2.01-2.17-4.76-3.26-8.27-3.26-2.4,0-4.54.51-6.45,1.53-1.9,1.02-3.41,2.53-4.51,4.54-1.11,2.01-1.66,4.49-1.66,7.46Z"/>
    <path class="st0" d="M386.89,72.14l24.39-66.93h9.7l24.57,66.93h-8.89l-14.15-39.85c-.9-2.52-1.92-5.58-3.08-9.19-1.15-3.61-2.55-8.24-4.2-13.9h1.75c-1.65,5.69-3.06,10.37-4.25,14.04-1.18,3.67-2.18,6.69-2.99,9.05l-13.93,39.85h-8.94ZM399.24,53.45v-7.41h34.01v7.41h-34.01Z"/>
    <path class="st0" d="M473.48,73.22c-4.52,0-8.48-1.07-11.88-3.21-3.4-2.14-6.05-5.14-7.95-9.01-1.9-3.86-2.85-8.33-2.85-13.39s.95-9.67,2.85-13.54c1.9-3.88,4.55-6.89,7.95-9.03,3.4-2.14,7.36-3.21,11.88-3.21,2.49,0,4.82.33,7.01.99,2.19.66,4.16,1.62,5.93,2.88,1.77,1.26,3.28,2.78,4.54,4.56,1.26,1.78,2.19,3.8,2.79,6.04l-7.77,1.71c-.33-1.32-.86-2.52-1.59-3.62-.73-1.09-1.62-2.04-2.67-2.85-1.05-.81-2.26-1.44-3.64-1.89-1.38-.45-2.91-.67-4.58-.67-3.26,0-5.97.85-8.13,2.54-2.16,1.69-3.77,3.95-4.85,6.76-1.08,2.82-1.62,5.93-1.62,9.34s.54,6.43,1.62,9.23c1.08,2.8,2.69,5.04,4.83,6.72,2.14,1.68,4.86,2.52,8.15,2.52,1.68,0,3.21-.22,4.6-.67s2.63-1.09,3.71-1.93c1.08-.84,1.98-1.83,2.7-2.99.72-1.15,1.26-2.4,1.62-3.75l7.77,1.71c-.6,2.28-1.53,4.31-2.79,6.11s-2.78,3.35-4.56,4.65c-1.78,1.3-3.78,2.3-6,2.99-2.22.69-4.57,1.03-7.05,1.03Z"/>
    <path class="st0" d="M524.05,22.54v6.83h-25.92v-6.83h25.92ZM505.85,10.37h8v49.1c0,2.13.44,3.68,1.33,4.65.88.97,2.37,1.46,4.47,1.46.54,0,1.21-.04,2-.13.79-.09,1.52-.18,2.18-.27l1.3,6.74c-.84.24-1.77.42-2.81.54-1.03.12-2.04.18-3.03.18-4.28,0-7.59-1.09-9.93-3.28-2.34-2.19-3.5-5.27-3.5-9.25V10.37Z"/>
    <path class="st0" d="M537.1,14.1c-1.5,0-2.79-.52-3.89-1.57-1.09-1.05-1.64-2.31-1.64-3.77s.55-2.72,1.64-3.75c1.09-1.03,2.39-1.55,3.89-1.55s2.84.52,3.93,1.55c1.09,1.03,1.64,2.28,1.64,3.75s-.55,2.73-1.64,3.77c-1.09,1.05-2.4,1.57-3.93,1.57ZM533.1,72.14V22.54h8v49.59h-8Z"/>
    <path class="st0" d="M568.31,72.14l-18.96-49.59h8.71l10.6,29.24c1.08,2.91,2.01,5.8,2.79,8.69.78,2.89,1.59,5.7,2.43,8.42h-2.7c.84-2.72,1.65-5.53,2.45-8.42.79-2.89,1.71-5.79,2.76-8.69l10.56-29.24h8.67l-18.96,49.59h-8.36Z"/>
    <path class="st0" d="M622.82,73.22c-4.79,0-8.92-1.08-12.4-3.23-3.47-2.16-6.14-5.15-8-8.98-1.86-3.83-2.79-8.28-2.79-13.34s.92-9.54,2.76-13.43c1.84-3.89,4.45-6.93,7.82-9.12,3.37-2.19,7.28-3.28,11.75-3.28,2.81,0,5.53.47,8.13,1.42s4.94,2.43,7.01,4.45,3.7,4.62,4.9,7.79c1.2,3.17,1.8,6.96,1.8,11.37v3.1h-38.99v-6.74h34.63l-3.64,2.43c0-3.26-.53-6.15-1.59-8.67-1.06-2.52-2.62-4.48-4.67-5.91-2.05-1.42-4.58-2.13-7.57-2.13s-5.52.72-7.66,2.16c-2.14,1.44-3.78,3.35-4.92,5.73-1.14,2.38-1.71,4.99-1.71,7.84v4.22c0,3.62.62,6.72,1.86,9.3,1.24,2.58,3.01,4.54,5.3,5.88s4.96,2.02,8.02,2.02c2.04,0,3.87-.3,5.5-.9,1.63-.6,3.03-1.48,4.2-2.65s2.05-2.61,2.65-4.31l7.77,1.71c-.75,2.61-2.05,4.91-3.91,6.92-1.86,2.01-4.17,3.57-6.94,4.69-2.77,1.12-5.88,1.68-9.32,1.68Z"/>
    <path class="st0" d="M5.4,107.66v-7.46h50.85v7.46h-21.16v59.48h-8.45v-59.48H5.4Z"/>
    <path class="st0" d="M60.28,167.14v-49.59h7.68v7.64h.45c.93-2.52,2.53-4.54,4.81-6.06,2.28-1.53,4.9-2.29,7.86-2.29.63,0,1.33.02,2.11.04.78.03,1.38.06,1.8.09v8.04c-.24-.06-.83-.15-1.77-.27-.94-.12-1.95-.18-3.03-.18-2.25,0-4.28.48-6.09,1.44-1.81.96-3.23,2.31-4.27,4.04-1.03,1.74-1.55,3.79-1.55,6.15v30.95h-8Z"/>
    <path class="st0" d="M106.89,168.22c-3.17,0-6.04-.58-8.6-1.75s-4.6-2.89-6.11-5.17c-1.51-2.28-2.27-5.05-2.27-8.31,0-2.84.56-5.15,1.68-6.92,1.12-1.77,2.62-3.17,4.49-4.2,1.87-1.03,3.95-1.8,6.24-2.31,2.29-.51,4.6-.91,6.94-1.21,3.02-.39,5.46-.69,7.3-.9,1.84-.21,3.2-.56,4.09-1.06.88-.49,1.33-1.35,1.33-2.58v-.31c0-2.01-.4-3.73-1.19-5.17-.79-1.44-1.97-2.54-3.53-3.3-1.56-.76-3.49-1.15-5.79-1.15s-4.4.37-6.09,1.1c-1.69.73-3.07,1.68-4.13,2.83-1.06,1.15-1.8,2.37-2.22,3.66l-7.77-2.02c1.02-3.02,2.56-5.46,4.63-7.3s4.44-3.19,7.12-4.04c2.68-.85,5.44-1.28,8.29-1.28,1.92,0,3.95.25,6.11.74s4.18,1.36,6.09,2.58c1.9,1.23,3.45,2.97,4.65,5.23,1.2,2.26,1.8,5.17,1.8,8.74v33.02h-7.86v-6.83h-.45c-.57,1.17-1.47,2.37-2.7,3.59s-2.83,2.25-4.81,3.08-4.39,1.24-7.23,1.24ZM108.2,161.12c3.02,0,5.55-.58,7.59-1.73,2.04-1.15,3.58-2.66,4.63-4.51,1.05-1.86,1.57-3.8,1.57-5.84v-6.74c-.33.36-1.01.69-2.04.99-1.03.3-2.23.57-3.59.81-1.36.24-2.71.44-4.04.61-1.33.17-2.46.31-3.39.43-1.92.24-3.71.65-5.39,1.24-1.68.58-3.03,1.43-4.04,2.54-1.02,1.11-1.53,2.61-1.53,4.49,0,1.68.44,3.09,1.33,4.25.88,1.15,2.09,2.02,3.62,2.61s3.29.88,5.3.88Z"/>
    <path class="st0" d="M155.62,167.14l-18.96-49.59h8.71l10.6,29.24c1.08,2.91,2.01,5.8,2.79,8.69.78,2.89,1.59,5.7,2.43,8.42h-2.7c.84-2.72,1.65-5.53,2.45-8.42.79-2.89,1.71-5.79,2.76-8.69l10.56-29.24h8.67l-18.96,49.59h-8.36Z"/>
    <path class="st0" d="M210.13,168.22c-4.79,0-8.92-1.08-12.4-3.23-3.47-2.16-6.14-5.15-8-8.98-1.86-3.83-2.79-8.28-2.79-13.34s.92-9.54,2.76-13.43c1.84-3.89,4.45-6.93,7.82-9.12,3.37-2.19,7.28-3.28,11.75-3.28,2.81,0,5.53.47,8.13,1.42s4.94,2.43,7.01,4.45,3.7,4.62,4.9,7.79c1.2,3.17,1.8,6.96,1.8,11.37v3.1h-38.99v-6.74h34.63l-3.64,2.43c0-3.26-.53-6.15-1.59-8.67-1.06-2.52-2.62-4.48-4.67-5.91-2.05-1.42-4.58-2.13-7.57-2.13s-5.52.72-7.66,2.16c-2.14,1.44-3.78,3.35-4.92,5.73-1.14,2.38-1.71,4.99-1.71,7.84v4.22c0,3.62.62,6.72,1.86,9.3,1.24,2.58,3.01,4.54,5.3,5.88s4.96,2.02,8.02,2.02c2.04,0,3.87-.3,5.5-.9,1.63-.6,3.03-1.48,4.2-2.65s2.05-2.61,2.65-4.31l7.77,1.71c-.75,2.61-2.05,4.91-3.91,6.92-1.86,2.01-4.17,3.57-6.94,4.69-2.77,1.12-5.88,1.68-9.32,1.68Z"/>
    <path class="st0" d="M249.33,100.2v66.93h-8v-66.93h8Z"/>
    <path class="st0" d="M299.79,100.2v66.93h-8.45v-66.93h8.45ZM312.19,167.14h-16.17v-7.46h15.63c5.45,0,9.97-1.05,13.57-3.14,3.59-2.1,6.27-5.1,8.04-9.01,1.77-3.91,2.65-8.57,2.65-13.99s-.88-9.97-2.63-13.84-4.36-6.83-7.82-8.92c-3.46-2.08-7.79-3.12-13-3.12h-16.8v-7.46h17.38c6.53,0,12.11,1.33,16.73,4,4.63,2.67,8.18,6.49,10.65,11.48s3.71,10.94,3.71,17.86-1.24,12.98-3.73,17.99c-2.49,5.02-6.11,8.87-10.87,11.57s-10.54,4.04-17.34,4.04Z"/>
    <path class="st0" d="M369.49,168.22c-3.17,0-6.04-.58-8.6-1.75s-4.6-2.89-6.11-5.17c-1.51-2.28-2.27-5.05-2.27-8.31,0-2.84.56-5.15,1.68-6.92,1.12-1.77,2.62-3.17,4.49-4.2,1.87-1.03,3.95-1.8,6.24-2.31,2.29-.51,4.6-.91,6.94-1.21,3.02-.39,5.46-.69,7.3-.9,1.84-.21,3.2-.56,4.09-1.06.88-.49,1.33-1.35,1.33-2.58v-.31c0-2.01-.4-3.73-1.19-5.17-.79-1.44-1.97-2.54-3.53-3.3-1.56-.76-3.49-1.15-5.79-1.15s-4.4.37-6.09,1.1c-1.69.73-3.07,1.68-4.13,2.83-1.06,1.15-1.8,2.37-2.22,3.66l-7.77-2.02c1.02-3.02,2.56-5.46,4.63-7.3s4.44-3.19,7.12-4.04c2.68-.85,5.44-1.28,8.29-1.28,1.92,0,3.95.25,6.11.74s4.18,1.36,6.09,2.58c1.9,1.23,3.45,2.97,4.65,5.23,1.2,2.26,1.8,5.17,1.8,8.74v33.02h-7.86v-6.83h-.45c-.57,1.17-1.47,2.37-2.7,3.59s-2.83,2.25-4.81,3.08-4.39,1.24-7.23,1.24ZM370.79,161.12c3.02,0,5.55-.58,7.59-1.73,2.04-1.15,3.58-2.66,4.63-4.51,1.05-1.86,1.57-3.8,1.57-5.84v-6.74c-.33.36-1.01.69-2.04.99-1.03.3-2.23.57-3.59.81-1.36.24-2.71.44-4.04.61-1.33.17-2.46.31-3.39.43-1.92.24-3.71.65-5.39,1.24-1.68.58-3.03,1.43-4.04,2.54-1.02,1.11-1.53,2.61-1.53,4.49,0,1.68.44,3.09,1.33,4.25.88,1.15,2.09,2.02,3.62,2.61s3.29.88,5.3.88Z"/>
    <path class="st0" d="M422.3,168.22c-3.41,0-6.47-.52-9.16-1.55s-4.91-2.57-6.65-4.6c-1.74-2.04-2.86-4.55-3.37-7.55l7.64-1.44c.63,2.79,1.92,4.84,3.89,6.18,1.96,1.33,4.48,2,7.57,2,3.44,0,6.19-.74,8.24-2.22,2.05-1.48,3.08-3.26,3.08-5.32,0-1.74-.62-3.17-1.86-4.31-1.24-1.14-3.06-1.98-5.46-2.52l-8.22-1.98c-4.52-1.05-7.89-2.7-10.11-4.96-2.22-2.26-3.32-5.14-3.32-8.65,0-2.84.79-5.35,2.36-7.52,1.57-2.17,3.74-3.87,6.49-5.1,2.75-1.23,5.9-1.84,9.43-1.84s6.35.54,8.8,1.62c2.45,1.08,4.44,2.58,5.95,4.49,1.51,1.92,2.57,4.13,3.17,6.65l-7.32,1.48c-.54-1.95-1.64-3.68-3.3-5.19-1.66-1.51-4.08-2.27-7.25-2.27-3,0-5.46.69-7.39,2.07-1.93,1.38-2.9,3.12-2.9,5.21,0,1.86.67,3.34,2.02,4.45,1.35,1.11,3.41,1.99,6.2,2.65l7.59,1.8c4.55,1.08,7.91,2.73,10.08,4.96,2.17,2.23,3.26,5.07,3.26,8.51,0,2.94-.82,5.53-2.47,7.77-1.65,2.25-3.93,4.01-6.85,5.28-2.92,1.27-6.3,1.91-10.13,1.91Z"/>
    <path class="st0" d="M460.11,137.58v29.56h-8v-66.93h8v29.33h-1.62c1.53-4.55,3.7-7.81,6.51-9.77,2.81-1.96,6.12-2.94,9.93-2.94,3.35,0,6.32.7,8.89,2.09,2.58,1.39,4.59,3.49,6.04,6.29,1.45,2.8,2.18,6.33,2.18,10.58v31.36h-8.04v-30.73c0-3.89-1-6.92-3.01-9.1-2.01-2.17-4.76-3.26-8.27-3.26-2.4,0-4.54.51-6.45,1.53-1.9,1.02-3.41,2.53-4.51,4.54-1.11,2.01-1.66,4.49-1.66,7.46Z"/>
    <path class="st0" d="M528.01,168.17c-2.91,0-5.32-.49-7.25-1.46s-3.48-2.13-4.65-3.48-2.1-2.59-2.79-3.73h-.72v7.64h-7.73v-66.93h8v25.16h.49c.66-1.11,1.56-2.32,2.7-3.64,1.14-1.32,2.66-2.46,4.56-3.44,1.9-.97,4.35-1.46,7.34-1.46,4.19,0,7.87,1.05,11.03,3.14,3.16,2.1,5.64,5.06,7.43,8.89,1.8,3.83,2.7,8.36,2.7,13.57s-.89,9.79-2.67,13.63c-1.78,3.85-4.25,6.83-7.41,8.94-3.16,2.11-6.84,3.17-11.03,3.17ZM526.8,161.03c3.05,0,5.64-.81,7.75-2.43s3.71-3.83,4.81-6.65c1.09-2.81,1.64-6,1.64-9.57s-.54-6.73-1.62-9.5c-1.08-2.77-2.67-4.95-4.78-6.54-2.11-1.59-4.71-2.38-7.79-2.38s-5.63.77-7.73,2.31c-2.1,1.54-3.69,3.69-4.78,6.45-1.09,2.76-1.64,5.97-1.64,9.66s.55,6.93,1.64,9.73c1.09,2.8,2.7,4.99,4.83,6.56,2.13,1.57,4.69,2.36,7.68,2.36Z"/>
    <path class="st0" d="M579.79,168.22c-4.52,0-8.48-1.07-11.88-3.21-3.4-2.14-6.05-5.14-7.95-9.01-1.9-3.86-2.85-8.33-2.85-13.39s.95-9.67,2.85-13.54c1.9-3.88,4.55-6.89,7.95-9.03,3.4-2.14,7.36-3.21,11.88-3.21s8.49,1.07,11.9,3.21c3.41,2.14,6.07,5.15,7.97,9.03,1.9,3.88,2.85,8.39,2.85,13.54s-.95,9.52-2.85,13.39c-1.9,3.86-4.56,6.87-7.97,9.01s-7.38,3.21-11.9,3.21ZM579.79,161.07c3.29,0,6.03-.84,8.2-2.52,2.17-1.68,3.79-3.92,4.85-6.72,1.06-2.8,1.59-5.88,1.59-9.23s-.53-6.49-1.59-9.32c-1.06-2.83-2.68-5.09-4.85-6.78-2.17-1.69-4.9-2.54-8.2-2.54s-5.97.85-8.13,2.54c-2.16,1.69-3.77,3.95-4.85,6.76-1.08,2.82-1.62,5.93-1.62,9.34s.54,6.43,1.62,9.23c1.08,2.8,2.69,5.04,4.83,6.72,2.14,1.68,4.86,2.52,8.15,2.52Z"/>
    <path class="st0" d="M627.88,168.22c-3.17,0-6.04-.58-8.6-1.75s-4.6-2.89-6.11-5.17c-1.51-2.28-2.27-5.05-2.27-8.31,0-2.84.56-5.15,1.68-6.92,1.12-1.77,2.62-3.17,4.49-4.2,1.87-1.03,3.95-1.8,6.24-2.31,2.29-.51,4.6-.91,6.94-1.21,3.02-.39,5.46-.69,7.3-.9,1.84-.21,3.2-.56,4.09-1.06.88-.49,1.33-1.35,1.33-2.58v-.31c0-2.01-.4-3.73-1.19-5.17-.79-1.44-1.97-2.54-3.53-3.3-1.56-.76-3.49-1.15-5.79-1.15s-4.4.37-6.09,1.1c-1.69.73-3.07,1.68-4.13,2.83-1.06,1.15-1.8,2.37-2.22,3.66l-7.77-2.02c1.02-3.02,2.56-5.46,4.63-7.3s4.44-3.19,7.12-4.04c2.68-.85,5.44-1.28,8.29-1.28,1.92,0,3.95.25,6.11.74s4.18,1.36,6.09,2.58c1.9,1.23,3.45,2.97,4.65,5.23,1.2,2.26,1.8,5.17,1.8,8.74v33.02h-7.86v-6.83h-.45c-.57,1.17-1.47,2.37-2.7,3.59s-2.83,2.25-4.81,3.08-4.39,1.24-7.23,1.24ZM629.19,161.12c3.02,0,5.55-.58,7.59-1.73,2.04-1.15,3.58-2.66,4.63-4.51,1.05-1.86,1.57-3.8,1.57-5.84v-6.74c-.33.36-1.01.69-2.04.99-1.03.3-2.23.57-3.59.81-1.36.24-2.71.44-4.04.61-1.33.17-2.46.31-3.39.43-1.92.24-3.71.65-5.39,1.24-1.68.58-3.03,1.43-4.04,2.54-1.02,1.11-1.53,2.61-1.53,4.49,0,1.68.44,3.09,1.33,4.25.88,1.15,2.09,2.02,3.62,2.61s3.29.88,5.3.88Z"/>
    <path class="st0" d="M663.76,167.14v-49.59h7.68v7.64h.45c.93-2.52,2.53-4.54,4.81-6.06,2.28-1.53,4.9-2.29,7.86-2.29.63,0,1.33.02,2.11.04.78.03,1.38.06,1.8.09v8.04c-.24-.06-.83-.15-1.77-.27-.94-.12-1.95-.18-3.03-.18-2.25,0-4.28.48-6.09,1.44-1.81.96-3.23,2.31-4.27,4.04-1.03,1.74-1.55,3.79-1.55,6.15v30.95h-8Z"/>
    <path class="st0" d="M713.83,168.17c-4.16,0-7.83-1.06-11.01-3.17-3.17-2.11-5.65-5.09-7.43-8.94-1.78-3.85-2.67-8.39-2.67-13.63s.89-9.73,2.67-13.57c1.78-3.83,4.27-6.8,7.46-8.89,3.19-2.1,6.85-3.14,10.98-3.14,2.99,0,5.45.49,7.37,1.46,1.92.97,3.44,2.12,4.58,3.44,1.14,1.32,2.04,2.53,2.7,3.64h.49v-25.16h8v66.93h-7.73v-7.64h-.72c-.69,1.14-1.62,2.38-2.79,3.73s-2.71,2.51-4.63,3.48c-1.92.97-4.34,1.46-7.28,1.46ZM715,161.03c3.02,0,5.59-.79,7.7-2.36s3.72-3.76,4.83-6.56c1.11-2.8,1.66-6.04,1.66-9.73s-.55-6.9-1.64-9.66c-1.09-2.75-2.7-4.9-4.81-6.45-2.11-1.54-4.69-2.31-7.75-2.31s-5.64.79-7.75,2.38c-2.11,1.59-3.71,3.77-4.81,6.54-1.09,2.77-1.64,5.94-1.64,9.5s.55,6.75,1.64,9.57c1.09,2.82,2.7,5.03,4.83,6.65,2.13,1.62,4.7,2.43,7.73,2.43Z"/>
  </g>
</svg>