<?xml version="1.0" encoding="UTF-8"?>
<svg id="Layer_1" xmlns="http://www.w3.org/2000/svg" version="1.1" viewBox="0 0 187.39 187.53">
  <!-- Generator: Adobe Illustrator 29.8.1, SVG Export Plug-In . SVG Version: 2.1.1 Build 2)  -->
  <path d="M93.78,13.7c44.15,0,80.07,35.92,80.07,80.07s-35.92,80.07-80.07,80.07S13.71,137.92,13.71,93.77,49.63,13.7,93.78,13.7M93.78.24C42.12.24.24,42.11.24,93.77s41.88,93.53,93.53,93.53,93.53-41.88,93.53-93.53S145.43.24,93.78.24h0Z"/>
  <path d="M82.72,53.87c0-5.64,4.91-10.22,10.95-10.22s10.95,4.58,10.95,10.22-4.98,10.22-10.95,10.22-10.95-4.51-10.95-10.22ZM83.71,76.78h19.91v65.19h-19.91v-65.19Z"/>
</svg>