<?xml version="1.0" encoding="UTF-8"?>
<svg id="Layer_1" xmlns="http://www.w3.org/2000/svg" version="1.1" viewBox="0 0 184.7 83.7">
  <!-- Generator: Adobe Illustrator 29.8.1, SVG Export Plug-In . SVG Version: 2.1.1 Build 2)  -->
  <g id="Smart_Dublin_Logo">
    <path id="Path_82" d="M100.64,37.09c0,1-.1,1.9-.5,2.9-.3.8-.7,1.6-1.3,2.2-.6.6-1.4,1.1-2.2,1.5-1,.4-2,.5-3,.5-1.4.1-2.9-.4-4.1-1.2-1.1-.8-2.1-1.8-2.7-3l2.8-2.3c.5.9,1.2,1.7,2,2.3.6.4,1.4.6,2.2.6.8.1,1.7-.3,2.3-.8.6-.7.9-1.5.8-2.4,0-.5-.1-.9-.2-1.4-.1-.4-.4-.9-.7-1.2-.4-.5-.8-.9-1.3-1.3-.6-.5-1.3-1-2.1-1.5-.7-.4-1.4-.9-2-1.5-.6-.5-1.2-1-1.6-1.7-.5-.6-.8-1.3-1.1-2.1-.3-.9-.4-1.8-.4-2.7s.1-1.8.5-2.6c.3-.8.7-1.5,1.3-2,.6-.6,1.3-1,2-1.3.9-.3,1.8-.5,2.7-.5,1.3-.1,2.6.3,3.7.9,1,.7,1.9,1.6,2.6,2.6l-2.7,2.4c-.3-.4-.6-.7-.9-1.1-.2-.3-.5-.5-.8-.7s-.6-.3-.9-.4c-.4-.1-.7-.1-1.1-.1-.7,0-1.5.2-2,.8-.5.5-.7,1.2-.7,2,0,.4.1.9.2,1.3.1.4.4.8.6,1.1.3.4.7.8,1.2,1.1.5.4,1.1.8,1.8,1.3.8.5,1.6,1,2.3,1.6.7.5,1.3,1.1,1.8,1.8s.9,1.4,1.2,2.2c.2.8.3,1.8.3,2.7h0Z"/>
    <path id="Path_83" d="M118.54,43.79v-16.8c-.1.3-.2.7-.4,1.2s-.3,1.1-.5,1.8-.4,1.3-.6,2-.4,1.2-.5,1.7l-3.3,10.8-3.3-10.8c-.1-.5-.3-1-.5-1.7s-.4-1.3-.6-2-.4-1.2-.5-1.8-.3-.9-.3-1.2v16.8h-3.4v-25.8h3.8l3.3,10.7c.1.4.3.9.4,1.4.2.5.3,1.1.5,1.6s.3,1.1.4,1.5.2.8.3,1.1c.1-.2.2-.6.3-1.1.1-.5.3-1,.4-1.6s.3-1.1.5-1.7.3-1,.4-1.4l3.3-10.6h3.8v25.8l-3.5.1Z"/>
    <path id="Path_84" d="M135.64,17.99h-3.7l-6.3,25.8h3.8l1.5-6.8h5.6l1.5,6.8h3.9l-6.3-25.8ZM131.64,33.59l.9-4.4c.1-.4.2-.9.3-1.5.1-.5.2-1.1.3-1.6.1-.5.2-1,.3-1.5.1-.5.2-.8.2-1.1,0,.2.1.6.2,1.1s.2,1,.3,1.5c.1.5.2,1.1.3,1.6.1.6.2,1,.3,1.5l1,4.4h-4.1Z"/>
    <path id="Path_85" d="M155.84,31.89c1.2-.5,2.2-1.3,2.9-2.4.8-1.3,1.2-2.9,1.1-4.4,0-1.1-.2-2.2-.6-3.3-.4-.8-.9-1.6-1.6-2.2-.7-.6-1.5-1-2.3-1.2-.9-.3-1.8-.4-2.7-.4h-7.2v25.8h3.6v-11.2h3l3.9,11.2h4l-4.1-11.9ZM152.34,29.09h-3.3v-7.6h3.3c1,0,1.9.3,2.7.9.8.8,1.2,1.8,1.1,2.9h0c.1,1.1-.3,2.1-1,2.9-.8.6-1.8.9-2.8.9Z"/>
    <path id="Path_86" d="M170.64,21.49v22.2h-3.6v-22.2h-4.8v-3.5h13.1v3.5h-4.7Z"/>
    <path id="Path_87" d="M102.44,54.29c-.3-1.4-1-2.7-1.9-3.9-.8-1-1.8-1.8-3-2.2-1.3-.5-2.7-.7-4-.7h-5.7v25.1h5.6c1.4,0,2.7-.2,4-.7,1.2-.5,2.3-1.3,3.1-2.3.9-1.2,1.6-2.5,2-3.9.5-1.9.7-3.8.7-5.7-.1-1.9-.3-3.8-.8-5.7ZM98.24,63.29c-.1.9-.4,1.8-.8,2.6-.3.7-.9,1.3-1.5,1.7-.7.4-1.6.7-2.5.6h-1.2v-16.4h1.2c.9,0,1.7.2,2.5.6.7.4,1.2,1,1.5,1.7.4.8.7,1.7.8,2.6.1,1.1.2,2.1.2,3.2,0,1.3,0,2.3-.2,3.4Z"/>
    <path id="Path_88" d="M121.34,66.89c-.2,1.2-.6,2.3-1.3,3.3-.6.9-1.4,1.6-2.3,2.1-1.1.5-2.3.8-3.5.7-1.2,0-2.4-.2-3.4-.7-.9-.5-1.7-1.2-2.3-2.1-.6-1-1.1-2.1-1.3-3.3-.3-1.4-.4-2.8-.4-4.3v-15.2h4.5v15.2c-.1,1.6.1,3.1.7,4.6.4.9,1.3,1.4,2.3,1.3,1,.1,1.8-.5,2.2-1.3.6-1.5.8-3,.7-4.6v-15.2h4.5v15.1c0,1.5-.1,3-.4,4.4h0Z"/>
    <path id="Path_89" d="M141.14,64.79c.1-1.3-.3-2.6-1.1-3.7-.7-.9-1.6-1.6-2.6-2,1-.4,1.8-1.1,2.3-2s.8-1.9.8-2.9c.1-1.9-.6-3.7-2-4.9-1.5-1.3-3.5-1.9-5.5-1.8h-6.8v25.1h6.5c2.2.2,4.4-.5,6.2-1.9,1.5-1.3,2.2-3.3,2.2-5.9h0ZM130.64,51.59h2.4c.8-.1,1.7.2,2.3.7.5.6.7,1.3.7,2h0c0,.7-.2,1.4-.6,1.9-.6.6-1.4.9-2.3.8h-2.5v-5.4ZM135.84,67.49c-.7.7-1.8,1.1-2.8,1h-2.4v-7.4h2.3c1-.1,2.1.2,2.9.9.7.8,1,1.8.9,2.9,0,1-.3,1.9-.9,2.6Z"/>
    <path id="Path_90" d="M144.64,72.59v-25.1h4.5v20.7h7.9v4.4h-12.4Z"/>
    <rect id="Rectangle_646" x="160.74" y="47.49" width="4.5" height="25.1"/>
    <path id="Path_91" d="M180.64,72.59l-4.6-11.2c-.3-.8-.7-1.7-1-2.6s-.6-1.8-.9-2.5v16.2h-4.1v-25.1h4.5l4.4,11c.1.4.3.8.5,1.3s.4.9.5,1.4.4.9.5,1.4.3.8.4,1.2v-1.3c0-.5,0-1-.1-1.6s0-1.1,0-1.6v-11.8h4.1v25.1h-4.2v.1h0Z"/>
    <path d="M39.84,38.29c0,3.2-2.6,5.9-5.9,5.9s-5.9-2.6-5.9-5.9,2.6-5.9,5.9-5.9c3.3.1,5.9,2.7,5.9,5.9Z"/>
    <path d="M50.44,5.79C42.94,2.29,34.34.49,24.54.49H.24v83.7h24.3c15.7,0,27.9-3.3,36.6-10,8.7-6.7,13.1-16.9,13.1-30.7.4-16.3-9-31.2-23.8-37.7ZM33.94,63.69s-14.1-17.5-14.1-25.4c.1-7.8,6.5-14.1,14.3-14,7.7.1,14,6.3,14,14,0,7.9-13,24.2-14.2,25.4Z"/>
    <path d="M39.84,38.29c0,3.2-2.6,5.9-5.9,5.9s-5.9-2.6-5.9-5.9,2.6-5.9,5.9-5.9c3.3.1,5.9,2.7,5.9,5.9Z"/>
  </g>
</svg>